<?xml version="1.0" encoding="UTF-8"?>
<svg xmlns="http://www.w3.org/2000/svg" xmlns:xlink="http://www.w3.org/1999/xlink" width="120px" height="65px" viewBox="0 0 121 65" version="1.1">
<defs>
<clipPath id="clip1">
  <path d="M 80 2 L 108 2 L 108 28 L 80 28 Z M 80 2 "/>
</clipPath>
<clipPath id="clip2">
  <path d="M 105.496094 6.714844 C 101.640625 1.59375 93.464844 1.246094 87.238281 5.941406 C 81.011719 10.632812 79.09375 18.589844 82.949219 23.710938 C 86.808594 28.832031 94.984375 29.179688 101.210938 24.484375 C 107.4375 19.792969 109.355469 11.835938 105.496094 6.714844 Z M 105.496094 6.714844 "/>
</clipPath>
<clipPath id="clip3">
  <path d="M 67.070312 12.671875 L 99.246094 -11.582031 L 121.511719 17.972656 L 89.335938 42.226562 Z M 67.070312 12.671875 "/>
</clipPath>
<clipPath id="clip4">
  <path d="M 105.496094 6.714844 C 101.640625 1.59375 93.464844 1.246094 87.238281 5.941406 C 81.011719 10.632812 79.09375 18.589844 82.949219 23.710938 C 86.808594 28.832031 94.984375 29.179688 101.210938 24.484375 C 107.4375 19.792969 109.355469 11.835938 105.496094 6.714844 Z M 105.496094 6.714844 "/>
</clipPath>
<clipPath id="clip5">
  <path d="M 76.03125 14.644531 L 98.5625 -2.335938 L 112.546875 16.226562 L 90.015625 33.210938 Z M 76.03125 14.644531 "/>
</clipPath>
<clipPath id="clip6">
  <path d="M 80 2 L 108 2 L 108 28 L 80 28 Z M 80 2 "/>
</clipPath>
<clipPath id="clip7">
  <path d="M 105.496094 6.714844 C 101.640625 1.59375 93.464844 1.246094 87.238281 5.941406 C 81.011719 10.632812 79.09375 18.589844 82.949219 23.710938 C 86.808594 28.832031 94.984375 29.179688 101.210938 24.484375 C 107.4375 19.792969 109.355469 11.835938 105.496094 6.714844 Z M 105.496094 6.714844 "/>
</clipPath>
<clipPath id="clip8">
  <path d="M 67.070312 12.671875 L 99.246094 -11.582031 L 121.511719 17.972656 L 89.335938 42.226562 Z M 67.070312 12.671875 "/>
</clipPath>
<clipPath id="clip9">
  <path d="M 105.496094 6.714844 C 101.640625 1.59375 93.464844 1.246094 87.238281 5.941406 C 81.011719 10.632812 79.09375 18.589844 82.949219 23.710938 C 86.808594 28.832031 94.984375 29.179688 101.210938 24.484375 C 107.4375 19.792969 109.355469 11.835938 105.496094 6.714844 Z M 105.496094 6.714844 "/>
</clipPath>
<clipPath id="clip10">
  <path d="M 79.242188 25.792969 L 87.015625 -1.332031 L 109.355469 5.074219 L 101.578125 32.199219 Z M 79.242188 25.792969 "/>
</clipPath>
<clipPath id="clip11">
  <path d="M 80 2 L 108 2 L 108 28 L 80 28 Z M 80 2 "/>
</clipPath>
<clipPath id="clip12">
  <path d="M 105.496094 6.714844 C 101.640625 1.59375 93.464844 1.246094 87.238281 5.941406 C 81.011719 10.632812 79.09375 18.589844 82.949219 23.710938 C 86.808594 28.832031 94.984375 29.179688 101.210938 24.484375 C 107.4375 19.792969 109.355469 11.835938 105.496094 6.714844 Z M 105.496094 6.714844 "/>
</clipPath>
<clipPath id="clip13">
  <path d="M 67.070312 12.671875 L 99.246094 -11.582031 L 121.511719 17.972656 L 89.335938 42.226562 Z M 67.070312 12.671875 "/>
</clipPath>
<clipPath id="clip14">
  <path d="M 105.496094 6.714844 C 101.640625 1.59375 93.464844 1.246094 87.238281 5.941406 C 81.011719 10.632812 79.09375 18.589844 82.949219 23.710938 C 86.808594 28.832031 94.984375 29.179688 101.210938 24.484375 C 107.4375 19.792969 109.355469 11.835938 105.496094 6.714844 Z M 105.496094 6.714844 "/>
</clipPath>
<clipPath id="clip15">
  <path d="M 76.03125 14.644531 L 98.5625 -2.335938 L 112.546875 16.226562 L 90.015625 33.210938 Z M 76.03125 14.644531 "/>
</clipPath>
<clipPath id="clip16">
  <path d="M 80 2 L 108 2 L 108 28 L 80 28 Z M 80 2 "/>
</clipPath>
<clipPath id="clip17">
  <path d="M 105.496094 6.714844 C 101.640625 1.59375 93.464844 1.246094 87.238281 5.941406 C 81.011719 10.632812 79.09375 18.589844 82.949219 23.710938 C 86.808594 28.832031 94.984375 29.179688 101.210938 24.484375 C 107.4375 19.792969 109.355469 11.835938 105.496094 6.714844 Z M 105.496094 6.714844 "/>
</clipPath>
<clipPath id="clip18">
  <path d="M 67.070312 12.671875 L 99.246094 -11.582031 L 121.511719 17.972656 L 89.335938 42.226562 Z M 67.070312 12.671875 "/>
</clipPath>
<clipPath id="clip19">
  <path d="M 105.496094 6.714844 C 101.640625 1.59375 93.464844 1.246094 87.238281 5.941406 C 81.011719 10.632812 79.09375 18.589844 82.949219 23.710938 C 86.808594 28.832031 94.984375 29.179688 101.210938 24.484375 C 107.4375 19.792969 109.355469 11.835938 105.496094 6.714844 Z M 105.496094 6.714844 "/>
</clipPath>
<clipPath id="clip20">
  <path d="M 79.242188 25.792969 L 87.015625 -1.332031 L 109.355469 5.074219 L 101.578125 32.199219 Z M 79.242188 25.792969 "/>
</clipPath>
<clipPath id="clip21">
  <path d="M 80 2 L 108 2 L 108 28 L 80 28 Z M 80 2 "/>
</clipPath>
<clipPath id="clip22">
  <path d="M 105.496094 6.714844 C 101.640625 1.59375 93.464844 1.246094 87.238281 5.941406 C 81.011719 10.632812 79.09375 18.589844 82.949219 23.710938 C 86.808594 28.832031 94.984375 29.179688 101.210938 24.484375 C 107.4375 19.792969 109.355469 11.835938 105.496094 6.714844 Z M 105.496094 6.714844 "/>
</clipPath>
<clipPath id="clip23">
  <path d="M 67.070312 12.671875 L 99.246094 -11.582031 L 121.511719 17.972656 L 89.335938 42.226562 Z M 67.070312 12.671875 "/>
</clipPath>
<clipPath id="clip24">
  <path d="M 105.496094 6.714844 C 101.640625 1.59375 93.464844 1.246094 87.238281 5.941406 C 81.011719 10.632812 79.09375 18.589844 82.949219 23.710938 C 86.808594 28.832031 94.984375 29.179688 101.210938 24.484375 C 107.4375 19.792969 109.355469 11.835938 105.496094 6.714844 Z M 105.496094 6.714844 "/>
</clipPath>
<clipPath id="clip25">
  <path d="M 80 2 L 108 2 L 108 28 L 80 28 Z M 80 2 "/>
</clipPath>
<clipPath id="clip26">
  <path d="M 105.496094 6.714844 C 101.640625 1.59375 93.464844 1.246094 87.238281 5.941406 C 81.011719 10.632812 79.09375 18.589844 82.949219 23.710938 C 86.808594 28.832031 94.984375 29.179688 101.210938 24.484375 C 107.4375 19.792969 109.355469 11.835938 105.496094 6.714844 Z M 105.496094 6.714844 "/>
</clipPath>
<clipPath id="clip27">
  <path d="M 67.070312 12.671875 L 99.246094 -11.582031 L 121.511719 17.972656 L 89.335938 42.226562 Z M 67.070312 12.671875 "/>
</clipPath>
<clipPath id="clip28">
  <path d="M 87 7 L 102 7 L 102 23 L 87 23 Z M 87 7 "/>
</clipPath>
<clipPath id="clip29">
  <path d="M 105.496094 6.714844 C 101.640625 1.59375 93.464844 1.246094 87.238281 5.941406 C 81.011719 10.632812 79.09375 18.589844 82.949219 23.710938 C 86.808594 28.832031 94.984375 29.179688 101.210938 24.484375 C 107.4375 19.792969 109.355469 11.835938 105.496094 6.714844 Z M 105.496094 6.714844 "/>
</clipPath>
<clipPath id="clip30">
  <path d="M 67.070312 12.671875 L 99.246094 -11.582031 L 121.511719 17.972656 L 89.335938 42.226562 Z M 67.070312 12.671875 "/>
</clipPath>
</defs>
<g id="surface1">
<path style=" stroke:none;fill-rule:nonzero;fill:rgb(0%,0%,0%);fill-opacity:1;" d="M 63.949219 15.242188 L 69.84375 14.859375 C 69.976562 15.824219 70.226562 16.542969 70.628906 17.058594 C 71.277344 17.863281 72.175781 18.265625 73.363281 18.265625 C 74.234375 18.265625 74.929688 18.066406 75.402344 17.640625 C 75.847656 17.304688 76.117188 16.765625 76.117188 16.207031 C 76.117188 15.667969 75.871094 15.152344 75.445312 14.816406 C 74.996094 14.410156 73.945312 14.007812 72.285156 13.648438 C 69.574219 13.042969 67.625 12.238281 66.484375 11.207031 C 65.339844 10.242188 64.691406 8.832031 64.734375 7.328125 C 64.734375 6.296875 65.046875 5.265625 65.632812 4.414062 C 66.304688 3.453125 67.222656 2.691406 68.320312 2.265625 C 69.507812 1.75 71.164062 1.480469 73.25 1.480469 C 75.804688 1.480469 77.753906 1.949219 79.097656 2.914062 C 80.441406 3.855469 81.25 5.378906 81.496094 7.464844 L 75.667969 7.800781 C 75.511719 6.902344 75.199219 6.253906 74.683594 5.828125 C 74.167969 5.402344 73.496094 5.199219 72.621094 5.199219 C 71.90625 5.199219 71.367188 5.355469 71.007812 5.648438 C 70.671875 5.917969 70.449219 6.320312 70.472656 6.769531 C 70.472656 7.105469 70.652344 7.417969 70.917969 7.621094 C 71.210938 7.890625 71.90625 8.136719 73.003906 8.359375 C 75.714844 8.941406 77.640625 9.527344 78.828125 10.132812 C 80.015625 10.734375 80.867188 11.476562 81.382812 12.351562 C 81.921875 13.246094 82.191406 14.277344 82.167969 15.332031 C 82.167969 16.585938 81.808594 17.839844 81.09375 18.894531 C 80.351562 19.992188 79.320312 20.84375 78.113281 21.359375 C 76.835938 21.921875 75.222656 22.210938 73.292969 22.210938 C 69.890625 22.210938 67.535156 21.5625 66.214844 20.238281 C 64.890625 18.917969 64.109375 17.257812 63.949219 15.242188 Z M 1.410156 21.875 L 1.410156 1.839844 L 11.742188 1.839844 C 13.644531 1.839844 15.125 1.996094 16.132812 2.332031 C 17.121094 2.644531 17.992188 3.292969 18.574219 4.167969 C 19.226562 5.132812 19.539062 6.253906 19.515625 7.417969 C 19.585938 9.390625 18.574219 11.273438 16.851562 12.261719 C 16.179688 12.640625 15.4375 12.910156 14.675781 13.042969 C 15.238281 13.203125 15.796875 13.46875 16.289062 13.785156 C 16.671875 14.097656 16.984375 14.457031 17.277344 14.839844 C 17.613281 15.21875 17.902344 15.644531 18.148438 16.09375 L 21.152344 21.898438 L 14.117188 21.898438 L 10.800781 15.734375 C 10.375 14.949219 10.015625 14.433594 9.679688 14.1875 C 9.230469 13.875 8.695312 13.71875 8.15625 13.71875 L 7.617188 13.71875 L 7.617188 21.851562 L 1.410156 21.851562 Z M 7.617188 9.953125 L 10.238281 9.953125 C 10.800781 9.90625 11.339844 9.816406 11.875 9.683594 C 12.277344 9.617188 12.636719 9.390625 12.882812 9.054688 C 13.488281 8.25 13.398438 7.105469 12.660156 6.410156 C 12.257812 6.074219 11.472656 5.894531 10.351562 5.894531 L 7.617188 5.894531 Z M 0 39.042969 L 5.894531 38.664062 C 6.027344 39.628906 6.273438 40.34375 6.675781 40.859375 C 7.304688 41.667969 8.222656 42.09375 9.410156 42.09375 C 10.285156 42.09375 10.980469 41.890625 11.449219 41.464844 C 11.898438 41.105469 12.167969 40.589844 12.167969 40.03125 C 12.167969 39.492188 11.921875 38.976562 11.496094 38.640625 C 11.046875 38.238281 9.992188 37.835938 8.3125 37.476562 C 5.601562 36.871094 3.652344 36.0625 2.507812 35.03125 C 1.367188 34.070312 0.71875 32.65625 0.761719 31.15625 C 0.761719 30.125 1.074219 29.09375 1.65625 28.242188 C 2.332031 27.277344 3.25 26.515625 4.347656 26.089844 C 5.535156 25.574219 7.191406 25.304688 9.277344 25.304688 C 11.832031 25.304688 13.78125 25.777344 15.125 26.738281 C 16.46875 27.703125 17.253906 29.207031 17.5 31.289062 L 11.675781 31.625 C 11.515625 30.730469 11.203125 30.078125 10.6875 29.652344 C 10.195312 29.226562 9.5 29.027344 8.625 29.046875 C 7.910156 29.046875 7.371094 29.207031 7.011719 29.519531 C 6.65625 29.789062 6.453125 30.191406 6.476562 30.640625 C 6.476562 30.976562 6.65625 31.289062 6.925781 31.492188 C 7.214844 31.761719 7.910156 32.007812 9.007812 32.230469 C 11.71875 32.8125 13.644531 33.398438 14.832031 34 C 16.019531 34.605469 16.871094 35.347656 17.386719 36.21875 C 17.925781 37.117188 18.195312 38.148438 18.195312 39.179688 C 18.195312 40.433594 17.8125 41.667969 17.121094 42.71875 C 16.378906 43.820312 15.347656 44.671875 14.140625 45.1875 C 12.863281 45.746094 11.25 46.039062 9.320312 46.039062 C 5.914062 46.039062 3.5625 45.386719 2.242188 44.066406 C 0.917969 42.71875 0.179688 41.0625 0 39.042969 Z M 0 39.042969 "/>
<path style=" stroke:none;fill-rule:nonzero;fill:rgb(0%,0%,0%);fill-opacity:1;" d="M 29.800781 37.476562 L 35.222656 39.113281 C 34.933594 40.480469 34.328125 41.78125 33.5 42.921875 C 32.738281 43.929688 31.730469 44.714844 30.585938 45.230469 C 29.421875 45.746094 27.941406 46.015625 26.148438 46.015625 C 23.976562 46.015625 22.183594 45.703125 20.816406 45.074219 C 19.425781 44.445312 18.238281 43.324219 17.230469 41.734375 C 16.222656 40.144531 15.730469 38.101562 15.730469 35.617188 C 15.730469 32.296875 16.605469 29.742188 18.375 27.972656 C 20.144531 26.203125 22.632812 25.304688 25.859375 25.304688 C 28.390625 25.304688 30.363281 25.820312 31.820312 26.828125 C 33.253906 27.859375 34.328125 29.429688 35.046875 31.535156 L 29.578125 32.746094 C 29.441406 32.277344 29.242188 31.804688 28.972656 31.402344 C 28.636719 30.929688 28.210938 30.574219 27.695312 30.304688 C 27.179688 30.035156 26.597656 29.921875 26.015625 29.921875 C 24.601562 29.921875 23.527344 30.484375 22.789062 31.625 C 22.226562 32.457031 21.9375 33.777344 21.9375 35.570312 C 21.9375 37.789062 22.273438 39.3125 22.945312 40.144531 C 23.617188 40.972656 24.558594 41.375 25.789062 41.375 C 26.980469 41.375 27.875 41.039062 28.480469 40.390625 C 29.085938 39.695312 29.53125 38.730469 29.800781 37.476562 Z M 42.460938 25.640625 L 48.644531 25.640625 L 48.644531 32.65625 L 55.414062 32.65625 L 55.414062 25.640625 L 61.644531 25.640625 L 61.644531 45.679688 L 55.414062 45.679688 L 55.414062 37.566406 L 48.644531 37.566406 L 48.644531 45.679688 L 42.460938 45.679688 Z M 42.460938 25.640625 "/>
<path style=" stroke:none;fill-rule:nonzero;fill:rgb(0%,0%,0%);fill-opacity:1;" d="M 60.792969 35.660156 C 60.792969 32.386719 61.710938 29.832031 63.523438 28.015625 C 65.339844 26.203125 67.894531 25.28125 71.144531 25.28125 C 74.480469 25.28125 77.035156 26.179688 78.851562 27.972656 C 80.667969 29.765625 81.5625 32.277344 81.5625 35.503906 C 81.5625 37.855469 81.160156 39.761719 80.375 41.265625 C 79.613281 42.742188 78.425781 43.953125 76.96875 44.761719 C 75.46875 45.589844 73.609375 46.015625 71.390625 46.015625 C 69.125 46.015625 67.265625 45.65625 65.789062 44.941406 C 64.265625 44.175781 63.007812 42.988281 62.179688 41.53125 C 61.261719 39.964844 60.792969 38.015625 60.792969 35.660156 Z M 66.976562 35.683594 C 66.976562 37.699219 67.355469 39.15625 68.097656 40.054688 C 68.835938 40.925781 69.867188 41.375 71.164062 41.375 C 72.488281 41.375 73.519531 40.949219 74.257812 40.074219 C 74.996094 39.203125 75.355469 37.65625 75.355469 35.414062 C 75.355469 33.53125 74.976562 32.140625 74.214844 31.289062 C 73.453125 30.414062 72.421875 29.988281 71.121094 29.988281 C 69.976562 29.945312 68.878906 30.4375 68.117188 31.3125 C 67.355469 32.1875 66.976562 33.644531 66.976562 35.683594 Z M 87.902344 35.660156 C 87.902344 32.386719 88.824219 29.832031 90.636719 28.015625 C 92.453125 26.203125 95.007812 25.28125 98.257812 25.28125 C 101.59375 25.28125 104.171875 26.179688 105.964844 27.972656 C 107.757812 29.765625 108.675781 32.277344 108.675781 35.503906 C 108.675781 37.855469 108.273438 39.761719 107.488281 41.265625 C 106.726562 42.742188 105.539062 43.953125 104.082031 44.761719 C 102.582031 45.589844 100.722656 46.015625 98.503906 46.015625 C 96.238281 46.015625 94.378906 45.65625 92.902344 44.941406 C 91.378906 44.175781 90.121094 42.988281 89.292969 41.53125 C 88.375 39.964844 87.902344 38.015625 87.902344 35.660156 Z M 94.089844 35.683594 C 94.089844 37.699219 94.46875 39.15625 95.210938 40.054688 C 95.949219 40.925781 96.980469 41.375 98.277344 41.375 C 99.601562 41.375 100.632812 40.949219 101.371094 40.074219 C 102.109375 39.203125 102.46875 37.65625 102.46875 35.414062 C 102.46875 33.53125 102.089844 32.140625 101.328125 31.289062 C 100.5625 30.414062 99.535156 29.988281 98.234375 29.988281 C 97.089844 29.945312 95.972656 30.4375 95.230469 31.3125 C 94.46875 32.1875 94.089844 33.644531 94.089844 35.683594 Z M 94.089844 35.683594 "/>
<path style=" stroke:none;fill-rule:nonzero;fill:rgb(0%,0%,0%);fill-opacity:1;" d="M 108.027344 25.640625 L 114.210938 25.640625 L 114.210938 40.75 L 123.867188 40.75 L 123.867188 45.679688 L 108.003906 45.679688 L 108.003906 25.640625 Z M 108.027344 25.640625 "/>
<path style=" stroke:none;fill-rule:nonzero;fill:rgb(100%,100%,100%);fill-opacity:1;" d="M 105.496094 6.714844 C 101.640625 1.59375 93.464844 1.246094 87.238281 5.941406 C 81.011719 10.632812 79.09375 18.589844 82.949219 23.710938 C 86.808594 28.832031 94.984375 29.179688 101.210938 24.484375 C 107.4375 19.792969 109.355469 11.835938 105.496094 6.714844 Z M 105.496094 6.714844 "/>
<g clip-path="url(#clip1)" clip-rule="nonzero">
<g clip-path="url(#clip2)" clip-rule="nonzero">
<path style=" stroke:none;fill-rule:nonzero;fill:rgb(100%,100%,100%);fill-opacity:1;" d="M 67.070312 12.671875 L 99.246094 -11.582031 L 121.511719 17.972656 L 89.335938 42.226562 Z M 67.070312 12.671875 "/>
<g clip-path="url(#clip3)" clip-rule="nonzero">
<path style=" stroke:none;fill-rule:nonzero;fill:rgb(100%,100%,100%);fill-opacity:1;" d="M 105.496094 6.714844 C 101.640625 1.59375 93.464844 1.246094 87.238281 5.941406 C 81.011719 10.632812 79.09375 18.589844 82.949219 23.710938 C 86.808594 28.832031 94.984375 29.179688 101.210938 24.484375 C 107.4375 19.792969 109.355469 11.835938 105.496094 6.714844 Z M 105.496094 6.714844 "/>
<g clip-path="url(#clip4)" clip-rule="nonzero">
<path style=" stroke:none;fill-rule:nonzero;fill:rgb(100%,100%,100%);fill-opacity:1;" d="M 76.03125 14.644531 L 98.5625 -2.335938 L 112.546875 16.226562 L 90.015625 33.210938 Z M 76.03125 14.644531 "/>
<g clip-path="url(#clip5)" clip-rule="nonzero">
<path style="fill-rule:nonzero;fill:rgb(100%,100%,100%);fill-opacity:1;stroke-width:4;stroke-linecap:butt;stroke-linejoin:miter;stroke:rgb(0%,0%,0%);stroke-opacity:1;stroke-miterlimit:10;" d="M 483.492218 67.896463 C 483.501459 39.29431 455.295548 16.096669 420.496081 16.102917 C 385.707101 16.095247 357.505957 39.295541 357.496716 67.897695 C 357.501397 96.51034 385.707308 119.707981 420.506775 119.701733 C 455.295755 119.709403 483.496899 96.509108 483.492218 67.896463 Z M 483.492218 67.896463 " transform="matrix(0.178951,-0.134893,0.134854,0.179002,9.818473,59.7808)"/>
</g>
</g>
</g>
</g>
</g>
<g clip-path="url(#clip6)" clip-rule="nonzero">
<g clip-path="url(#clip7)" clip-rule="nonzero">
<g clip-path="url(#clip8)" clip-rule="nonzero">
<g clip-path="url(#clip9)" clip-rule="nonzero">
<g clip-path="url(#clip10)" clip-rule="nonzero">
<path style="fill:none;stroke-width:4;stroke-linecap:butt;stroke-linejoin:miter;stroke:rgb(0%,0%,0%);stroke-opacity:1;stroke-miterlimit:10;" d="M 357.806605 16.99535 L 483.704464 17.005628 L 483.706293 120.70551 L 357.797946 120.709151 Z M 357.806605 16.99535 " transform="matrix(0.178954,-0.13489,0.134851,0.179005,9.708659,59.866667)"/>
</g>
</g>
</g>
</g>
</g>
<g clip-path="url(#clip11)" clip-rule="nonzero">
<g clip-path="url(#clip12)" clip-rule="nonzero">
<g clip-path="url(#clip13)" clip-rule="nonzero">
<g clip-path="url(#clip14)" clip-rule="nonzero">
<path style="fill:none;stroke-width:4;stroke-linecap:butt;stroke-linejoin:miter;stroke:rgb(0%,0%,0%);stroke-opacity:1;stroke-miterlimit:10;" d="M 483.492218 67.896463 C 483.501459 39.29431 455.295548 16.096669 420.496081 16.102917 C 385.707101 16.095247 357.505957 39.295541 357.496716 67.897695 C 357.501397 96.51034 385.707308 119.707981 420.506775 119.701733 C 455.295755 119.709403 483.496899 96.509108 483.492218 67.896463 Z M 483.492218 67.896463 " transform="matrix(0.178951,-0.134893,0.134854,0.179002,9.818473,59.7808)"/>
<path style=" stroke:none;fill-rule:nonzero;fill:rgb(100%,100%,100%);fill-opacity:1;" d="M 76.03125 14.644531 L 98.5625 -2.335938 L 112.546875 16.226562 L 90.015625 33.210938 Z M 76.03125 14.644531 "/>
<g clip-path="url(#clip15)" clip-rule="nonzero">
<path style="fill-rule:nonzero;fill:rgb(100%,100%,100%);fill-opacity:1;stroke-width:4;stroke-linecap:butt;stroke-linejoin:miter;stroke:rgb(0%,0%,0%);stroke-opacity:1;stroke-miterlimit:10;" d="M 483.492218 67.896463 C 483.501459 39.29431 455.295548 16.096669 420.496081 16.102917 C 385.707101 16.095247 357.505957 39.295541 357.496716 67.897695 C 357.501397 96.51034 385.707308 119.707981 420.506775 119.701733 C 455.295755 119.709403 483.496899 96.509108 483.492218 67.896463 Z M 483.492218 67.896463 " transform="matrix(0.178951,-0.134893,0.134854,0.179002,9.818473,59.7808)"/>
</g>
</g>
</g>
</g>
</g>
<g clip-path="url(#clip16)" clip-rule="nonzero">
<g clip-path="url(#clip17)" clip-rule="nonzero">
<g clip-path="url(#clip18)" clip-rule="nonzero">
<g clip-path="url(#clip19)" clip-rule="nonzero">
<g clip-path="url(#clip20)" clip-rule="nonzero">
<path style="fill:none;stroke-width:4;stroke-linecap:butt;stroke-linejoin:miter;stroke:rgb(0%,0%,0%);stroke-opacity:1;stroke-miterlimit:10;" d="M 357.806605 16.99535 L 483.704464 17.005628 L 483.706293 120.70551 L 357.797946 120.709151 Z M 357.806605 16.99535 " transform="matrix(0.178954,-0.13489,0.134851,0.179005,9.708659,59.866667)"/>
</g>
</g>
</g>
</g>
</g>
<g clip-path="url(#clip21)" clip-rule="nonzero">
<g clip-path="url(#clip22)" clip-rule="nonzero">
<g clip-path="url(#clip23)" clip-rule="nonzero">
<g clip-path="url(#clip24)" clip-rule="nonzero">
<path style="fill:none;stroke-width:4;stroke-linecap:butt;stroke-linejoin:miter;stroke:rgb(0%,0%,0%);stroke-opacity:1;stroke-miterlimit:10;" d="M 330.900482 -14.205287 L 510.70231 -14.205022 L 510.702691 150.903262 L 330.900863 150.902997 Z M 330.900482 -14.205287 " transform="matrix(0.178951,-0.134893,0.134854,0.179002,9.770931,59.850711)"/>
</g>
</g>
</g>
</g>
<g clip-path="url(#clip25)" clip-rule="nonzero">
<g clip-path="url(#clip26)" clip-rule="nonzero">
<g clip-path="url(#clip27)" clip-rule="nonzero">
<path style="fill:none;stroke-width:4;stroke-linecap:butt;stroke-linejoin:miter;stroke:rgb(0%,0%,0%);stroke-opacity:1;stroke-miterlimit:10;" d="M 483.492218 67.896463 C 483.501459 39.29431 455.295548 16.096669 420.496081 16.102917 C 385.707101 16.095247 357.505957 39.295541 357.496716 67.897695 C 357.501397 96.51034 385.707308 119.707981 420.506775 119.701733 C 455.295755 119.709403 483.496899 96.509108 483.492218 67.896463 Z M 483.492218 67.896463 " transform="matrix(0.178951,-0.134893,0.134854,0.179002,9.818473,59.7808)"/>
</g>
</g>
</g>
<g clip-path="url(#clip28)" clip-rule="nonzero">
<g clip-path="url(#clip29)" clip-rule="nonzero">
<g clip-path="url(#clip30)" clip-rule="nonzero">
<path style=" stroke:none;fill-rule:nonzero;fill:rgb(0%,0%,0%);fill-opacity:1;" d="M 87.925781 13.738281 L 90.167969 12.171875 L 92.921875 16.09375 C 93.394531 16.71875 93.753906 17.394531 94.019531 18.132812 C 94.179688 18.691406 94.132812 19.296875 93.910156 19.835938 C 93.617188 20.507812 93.148438 21.070312 92.519531 21.472656 C 91.78125 21.988281 91.152344 22.28125 90.617188 22.367188 C 90.101562 22.457031 89.5625 22.367188 89.070312 22.144531 C 88.53125 21.875 88.0625 21.496094 87.703125 21 L 89.628906 19.207031 C 89.785156 19.457031 89.988281 19.679688 90.210938 19.859375 C 90.367188 19.96875 90.546875 20.039062 90.75 20.039062 C 90.90625 20.039062 91.0625 19.96875 91.175781 19.882812 C 91.398438 19.746094 91.558594 19.476562 91.535156 19.207031 C 91.46875 18.828125 91.308594 18.445312 91.0625 18.15625 Z M 94.648438 16.226562 L 96.6875 14.613281 C 96.910156 14.882812 97.203125 15.085938 97.515625 15.195312 C 97.964844 15.332031 98.4375 15.242188 98.816406 14.949219 C 99.085938 14.769531 99.308594 14.523438 99.398438 14.210938 C 99.535156 13.808594 99.308594 13.359375 98.90625 13.222656 C 98.839844 13.203125 98.773438 13.179688 98.703125 13.179688 C 98.4375 13.15625 97.964844 13.269531 97.269531 13.558594 C 96.128906 14.03125 95.230469 14.210938 94.558594 14.144531 C 93.910156 14.074219 93.304688 13.738281 92.945312 13.179688 C 92.675781 12.796875 92.542969 12.351562 92.519531 11.902344 C 92.519531 11.386719 92.65625 10.871094 92.945312 10.445312 C 93.371094 9.839844 93.886719 9.324219 94.515625 8.921875 C 95.457031 8.269531 96.285156 7.957031 97 7.957031 C 97.71875 7.957031 98.390625 8.292969 99.019531 8.988281 L 97 10.578125 C 96.597656 10.0625 95.835938 9.953125 95.320312 10.355469 L 95.253906 10.421875 C 95.03125 10.558594 94.871094 10.757812 94.785156 11.003906 C 94.714844 11.183594 94.761719 11.386719 94.871094 11.542969 C 94.960938 11.65625 95.097656 11.746094 95.253906 11.746094 C 95.433594 11.765625 95.746094 11.675781 96.195312 11.476562 C 97.316406 11.003906 98.167969 10.734375 98.75 10.648438 C 99.242188 10.558594 99.757812 10.601562 100.226562 10.804688 C 100.652344 10.984375 101.011719 11.296875 101.257812 11.675781 C 101.574219 12.125 101.753906 12.664062 101.773438 13.222656 C 101.796875 13.808594 101.640625 14.367188 101.328125 14.859375 C 100.921875 15.464844 100.40625 15.980469 99.800781 16.382812 C 98.570312 17.234375 97.5625 17.59375 96.753906 17.460938 C 95.882812 17.324219 95.164062 16.878906 94.648438 16.226562 Z M 94.648438 16.226562 "/>
</g>
</g>
</g>
</g>
</svg>
